<svg xmlns="http://www.w3.org/2000/svg" viewBox="0 0 5279.3 1594.6"><defs><style>.cls-1{fill:#333;}.cls-2{font-size:584.45px;fill:#333;font-family:KeepCalm-Medium, Keep Calm;font-weight:500;}.cls-3{font-size:448.98px;}.cls-4{letter-spacing:-0.06em;}.cls-5{letter-spacing:0em;}</style></defs><g id="Layer_2" data-name="Layer 2"><g id="Layer_4" data-name="Layer 4"><path class="cls-1" d="M1042.06,1370.79c81.74-64.57,168.72-136.13,244.56-204.65l76.7-850.69,127.23-110.54S1318.42,74.91,1008.85,22C976.17,16.42,942,11.69,906.24,8.08q-31-3.18-63.51-5.14Q818.88,1.49,794.24.75,770.14,0,745.27,0t-49,.75q-24.66.71-48.49,2.19Q615.3,4.88,584.3,8.08C548.6,11.69,514.38,16.42,481.7,22,172.13,74.91,0,204.91,0,204.91L127.23,315.45l76.7,850.69c75.84,68.52,162.82,140.08,244.56,204.65,33.37,26.38,65.87,51.57,96.37,74.91,27.9,21.36,54.14,41.17,77.84,58.92,16.29,12.18,31.38,23.38,45,33.45,14.11,10.42,26.64,19.61,37.3,27.4,25.46,18.57,40.26,29.13,40.26,29.13s14.81-10.56,40.27-29.13c10.66-7.79,23.19-17,37.3-27.4,13.63-10.07,28.72-21.27,45-33.45,23.7-17.75,49.93-37.56,77.83-58.92C976.19,1422.36,1008.68,1397.17,1042.06,1370.79Zm-554.9-74.31q-22.65-18-45.63-36.5c-53.9-43.56-108.25-89-158.39-133.33L206.36,275.26l-66.53-57.78c25.63-13,56.46-27.25,92.24-41.43A1263.7,1263.7,0,0,1,370.7,130.4C405.75,121,444,112.25,485.36,104.86c31.9-5.71,65.62-10.61,101.07-14.37q30.39-3.26,62.45-5.34,23.49-1.52,47.88-2.28,23.87-.78,48.51-.79t48.51.79q24.38.76,47.89,2.28,32,2,62.45,5.34c35.45,3.76,69.17,8.66,101.06,14.37,41.33,7.39,79.62,16.15,114.66,25.54a1263.22,1263.22,0,0,1,138.64,45.65c35.78,14.18,66.61,28.44,92.24,41.43l-66.54,57.78-76.77,851.39C1157.27,1171,1102.92,1216.42,1049,1260q-22.93,18.49-45.63,36.5c-17.9,14.23-35.61,28.13-52.92,41.61-27.87,21.7-54.76,42.33-79.93,61.47-16.23,12.33-31.75,24-46.37,35-13.52,10.12-26.25,19.63-38.06,28.38-15.28,11.33-29,21.43-40.84,30.1-11.83-8.67-25.55-18.77-40.83-30.1-11.82-8.75-24.55-18.26-38.07-28.38-14.62-11-30.13-22.67-46.36-35-25.17-19.14-52.06-39.77-79.93-61.47C522.77,1324.61,505.06,1310.71,487.16,1296.48Z"/><path class="cls-1" d="M786.67,1359.88q18.52-13.92,38.86-29.4c15.3-11.64,31.27-23.88,47.72-36.59v0l7.22-281.39v0H788.62Z"/><path class="cls-1" d="M607.86,925.8v0H882.68v0L832,844.49l-.18,0,2.57-198.89,57.32-71.85v0l98.11-123-34.57,778.86c17.81-14.12,35.82-28.59,53.84-43.21L1029,803.25l32-26.4,19.38-16L1056,1147.93c24.53-20.37,48.76-40.89,72.21-61.25l69.49-770.54,6.57-72.91c-26.38-9.75-56.37-19.73-89.72-29.16-3.7-1-7.44-2.06-11.23-3.1q-30.54-8.33-64.58-15.8h0L999,245.08h0L896.88,373v0L837,448.14l2-153.34.49-37.61s32-14.69,61.81-54v0a223.24,223.24,0,0,0,18.21-28.27,133.57,133.57,0,0,1-17.59,3.45c-11.48,1.57-27.35,2.48-43.61-.42-5.33-1-11.2-2.36-17.74-4-12.84-3.14-28.26-7.06-47.19-9.81a328.73,328.73,0,0,0-48.05-3.45,198.73,198.73,0,0,0-48,6c-18.57,4.62-34.92,11.57-47.06,19.37v0c-10.24,6.59-17.5,13.79-20.63,20.76,0,0-22.55,5.45-39.62,19.94h0c-17.24,14.6-28.89,38.38-6.18,75l0,0a41.43,41.43,0,0,1,7.77-12.07v0c8.92-10,26.78-21.87,59.78-17l2.27,175.45-59.92-75.09v0L491.59,245.09h0l-39.81-49.91h0q-34,7.41-64.58,15.8c-3.79,1-7.53,2.06-11.23,3.1-33.36,9.43-63.35,19.41-89.73,29.16l6.58,72.91,69.49,770.54c23.44,20.36,47.68,40.88,72.21,61.25L410.24,760.86l19.38,16,32,26.4,19.86,383.21c18,14.62,36,29.07,53.84,43.22L500.71,450.81l98.12,123v0l57.32,71.85,2.57,198.89-.19,0Zm502.05-636.91v0ZM697.48,210.31a110.92,110.92,0,0,1,11.36,2.06,89.82,89.82,0,0,1-11.31,6.7,39.07,39.07,0,0,1-6.7,2.62c-13.1,3.49-34.84,0-34.84,0S664.94,206.13,697.48,210.31ZM380.63,288.89h0v0Z"/><path class="cls-1" d="M665,1330.48c13.5,10.27,26.49,20.1,38.83,29.39h0l-1.94-347.41H610.08v0l7.22,281.39c16.45,12.72,32.42,25,47.72,36.59Z"/><text class="cls-2" transform="translate(1567.81 721.77)">IM<tspan class="cls-3"><tspan x="0" y="538.78">SUPER LE</tspan><tspan class="cls-4" x="2278.1" y="538.78">A</tspan><tspan class="cls-5" x="2647.17" y="538.78">GUE</tspan></tspan></text></g></g></svg>