<?xml version="1.0" encoding="utf-8"?>
<!-- Generator: Adobe Illustrator 25.1.0, SVG Export Plug-In . SVG Version: 6.00 Build 0)  -->
<svg version="1.1" id="Layer_1" xmlns="http://www.w3.org/2000/svg" xmlns:xlink="http://www.w3.org/1999/xlink" x="0px" y="0px"
	 viewBox="0 0 438.7 412.1" style="enable-background:new 0 0 438.7 412.1;" xml:space="preserve">
<style type="text/css">
	.st0{fill:#996600;}
	.st1{fill:none;}
</style>
<g id="Layer_2_1_">
	<g id="Layer_1-2">
		<path class="st0" d="M224.9,282.8c1.7-1.3,3.5-2.7,5.4-4.1c2.1-1.6,4.4-3.3,6.7-5.1l0,0l1-39.3h-12.8L224.9,282.8z"/>
		<path class="st0" d="M207.9,278.7c1.9,1.4,3.7,2.8,5.4,4.1l0,0l-0.3-48.5h-12.8l1,39.3C203.5,275.4,205.8,277.1,207.9,278.7
			L207.9,278.7z"/>
		<path class="st0" d="M285.4,326.3c18.3-13.9,37.8-29.2,54.8-43.9l17.2-182.5l28.5-23.7c0,0-38.6-27.9-107.9-39.2
			c-7.3-1.2-15-2.2-23-3c-4.6-0.5-9.4-0.8-14.2-1.1c-3.6-0.2-7.2-0.4-10.9-0.5c-3.6-0.1-7.2-0.2-11-0.2s-7.4,0-11,0.2
			s-7.3,0.3-10.9,0.5c-4.9,0.3-9.6,0.6-14.2,1.1c-8,0.8-15.7,1.8-23,3C90.6,48.3,52.1,76.2,52.1,76.2l28.5,23.7l17.2,182.5
			c17,14.7,36.5,30,54.8,43.9c7.5,5.7,14.8,11.1,21.6,16.1c6.2,4.6,12.1,8.8,17.4,12.6c3.6,2.6,7,5,10.1,7.2s6,4.2,8.4,5.9
			c5.7,4,9,6.2,9,6.2s3.3-2.3,9-6.2c2.4-1.7,5.2-3.6,8.4-5.9s6.4-4.6,10.1-7.2c5.3-3.8,11.2-8.1,17.4-12.6
			C270.7,337.4,278,332,285.4,326.3z M161.2,310.4c-3.4-2.6-6.8-5.2-10.2-7.8c-12.1-9.4-24.2-19.1-35.5-28.6L98.3,91.3L83.4,78.9
			c5.7-2.8,12.6-5.8,20.7-8.9c10.1-3.8,20.5-7.1,31-9.8c7.9-2,16.4-3.9,25.7-5.5c7.1-1.2,14.7-2.3,22.6-3.1c4.5-0.5,9.2-0.9,14-1.2
			c3.5-0.2,7.1-0.4,10.7-0.5s7.2-0.2,10.9-0.2s7.3,0.1,10.9,0.2s7.2,0.3,10.7,0.5c4.8,0.3,9.4,0.7,14,1.2c7.9,0.8,15.5,1.9,22.6,3.1
			c9.3,1.6,17.8,3.5,25.7,5.5c10.5,2.7,20.9,6,31.1,9.8c8,3,14.9,6.1,20.7,8.9l-14.9,12.4l-17.2,182.6
			c-11.2,9.5-23.4,19.3-35.5,28.6c-3.4,2.7-6.8,5.3-10.2,7.8c-4,3-8,6-11.9,8.9c-6.2,4.6-12.3,9.1-17.9,13.2
			c-3.6,2.7-7.1,5.2-10.4,7.5c-3,2.2-5.9,4.2-8.5,6.1c-3.4,2.4-6.5,4.6-9.1,6.5c-2.6-1.9-5.7-4-9.1-6.5c-2.6-1.9-5.5-3.9-8.5-6.1
			c-3.3-2.4-6.7-4.9-10.4-7.5c-5.6-4.1-11.7-8.5-17.9-13.2C169.2,316.4,165.2,313.4,161.2,310.4L161.2,310.4z"/>
		<path class="st0" d="M188.2,230.9h61.5l-11.4-17.4l0,0l0.6-42.7l12.8-15.4l0,0l22-26.4L266,296c4-3,8-6.1,12.1-9.3l4.5-82.2
			l7.2-5.7l4.3-3.4l-5.5,83c5.5-4.4,10.9-8.8,16.2-13.1l15.6-165.2l1.5-15.7c-5.9-2.1-12.6-4.2-20.1-6.2l-2.5-0.7
			c-4.6-1.2-9.4-2.3-14.5-3.4l0,0l-8.9,10.7l0,0l-22.9,27.4l0,0l-13.4,16.1l0.5-32.9l0.1-8.1c0,0,7.2-3.2,13.8-11.6l0,0
			c1.5-1.9,2.9-3.9,4.1-6.1c-1.3,0.3-2.6,0.6-3.9,0.7c-3.2,0.4-6.5,0.4-9.8-0.1c-1.2-0.2-2.5-0.5-4-0.9c-2.9-0.7-6.3-1.5-10.6-2.1
			c-3.6-0.5-7.1-0.7-10.7-0.7c-3.6,0-7.2,0.4-10.8,1.3c-3.7,0.8-7.3,2.2-10.5,4.2l0,0c-1.9,1-3.5,2.6-4.6,4.4
			c-3.2,0.8-6.2,2.3-8.9,4.3l0,0c-3.9,3.1-6.5,8.2-1.4,16.1l0,0c0.4-1,1-1.8,1.7-2.6l0,0c2-2.1,6-4.7,13.4-3.7l0.5,37.6L185,112.3
			l0,0l-22.8-27.4l0,0l-8.9-10.7l0,0c-5.1,1.1-9.9,2.2-14.5,3.4c-0.9,0.2-1.7,0.4-2.5,0.7c-7.5,2-14.2,4.2-20.1,6.3l1.5,15.6
			l15.6,165.3c5.2,4.4,10.7,8.8,16.2,13.1l-5.4-83l4.3,3.4l7.2,5.7l4.4,82.2c4,3.1,8,6.2,12.1,9.3L164.2,129l22,26.4l0,0l12.8,15.4
			l0.6,42.7l0,0L188.2,230.9z M208.3,77.4c0.9,0.1,1.7,0.2,2.5,0.4c-0.8,0.5-1.7,1-2.5,1.4c-0.5,0.2-1,0.4-1.5,0.6
			c-2.9,0.8-7.8,0-7.8,0S201,76.5,208.3,77.4z"/>
		<rect y="0" class="st1" width="438.7" height="412.1"/>
	</g>
</g>
</svg>
